<svg width="789" height="136" viewBox="0 0 789 136" fill="none" xmlns="http://www.w3.org/2000/svg">
<path d="M99.5 127L13.3305 82L185.67 82L99.5 127Z" fill="#D9D9D9"/>
<path d="M99.5 97L13.3305 52L185.67 52L99.5 97Z" fill="white"/>
<path d="M99.5 79L45.3734 19.75L153.627 19.75L99.5 79Z" fill="#D9D9D9"/>
<path d="M242.184 107.96C237.96 107.96 234.28 107.16 231.144 105.56C228.072 103.96 225.672 101.656 223.944 98.648C222.28 95.576 221.448 91.96 221.448 87.8V56.12C221.448 51.896 222.28 48.28 223.944 45.272C225.672 42.264 228.072 39.96 231.144 38.36C234.28 36.76 237.96 35.96 242.184 35.96C246.408 35.96 250.056 36.792 253.128 38.456C256.2 40.056 258.568 42.36 260.232 45.368C261.896 48.376 262.728 51.96 262.728 56.12H254.088C254.088 52.152 253.032 49.112 250.92 47C248.872 44.824 245.96 43.736 242.184 43.736C238.408 43.736 235.432 44.792 233.256 46.904C231.144 49.016 230.088 52.056 230.088 56.024V87.8C230.088 91.768 231.144 94.84 233.256 97.016C235.432 99.128 238.408 100.184 242.184 100.184C245.96 100.184 248.872 99.128 250.92 97.016C253.032 94.84 254.088 91.768 254.088 87.8H262.728C262.728 91.896 261.896 95.48 260.232 98.552C258.568 101.56 256.2 103.896 253.128 105.56C250.056 107.16 246.408 107.96 242.184 107.96ZM279.395 107V36.92H288.035V54.2V64.28H289.859L288.035 66.296C288.035 62.136 289.283 58.936 291.779 56.696C294.275 54.392 297.731 53.24 302.147 53.24C307.459 53.24 311.683 54.872 314.819 58.136C317.955 61.4 319.523 65.848 319.523 71.48V107H310.883V72.44C310.883 68.664 309.859 65.752 307.811 63.704C305.827 61.592 303.107 60.536 299.651 60.536C296.067 60.536 293.219 61.656 291.107 63.896C289.059 66.136 288.035 69.304 288.035 73.4V107H279.395ZM356.925 107.96C352.765 107.96 349.117 107.128 345.981 105.464C342.909 103.8 340.509 101.464 338.781 98.456C337.117 95.384 336.285 91.832 336.285 87.8V73.4C336.285 69.304 337.117 65.752 338.781 62.744C340.509 59.736 342.909 57.4 345.981 55.736C349.117 54.072 352.765 53.24 356.925 53.24C361.085 53.24 364.701 54.072 367.773 55.736C370.909 57.4 373.309 59.736 374.973 62.744C376.701 65.752 377.565 69.304 377.565 73.4V82.712H344.733V87.8C344.733 91.96 345.789 95.16 347.901 97.4C350.013 99.576 353.021 100.664 356.925 100.664C360.253 100.664 362.941 100.088 364.989 98.936C367.037 97.72 368.285 95.928 368.733 93.56H377.373C376.797 97.976 374.621 101.496 370.845 104.12C367.133 106.68 362.493 107.96 356.925 107.96ZM369.117 76.952V73.4C369.117 69.24 368.061 66.04 365.949 63.8C363.901 61.56 360.893 60.44 356.925 60.44C353.021 60.44 350.013 61.56 347.901 63.8C345.789 66.04 344.733 69.24 344.733 73.4V76.184H369.789L369.117 76.952ZM414.872 107.96C410.648 107.96 406.936 107.16 403.736 105.56C400.6 103.96 398.168 101.656 396.44 98.648C394.712 95.576 393.848 91.96 393.848 87.8V73.4C393.848 69.176 394.712 65.56 396.44 62.552C398.168 59.544 400.6 57.24 403.736 55.64C406.936 54.04 410.648 53.24 414.872 53.24C420.952 53.24 425.848 54.872 429.56 58.136C433.272 61.4 435.224 65.848 435.416 71.48H426.776C426.584 68.088 425.432 65.496 423.32 63.704C421.272 61.848 418.456 60.92 414.872 60.92C411.096 60.92 408.088 62.008 405.848 64.184C403.608 66.296 402.488 69.336 402.488 73.304V87.8C402.488 91.768 403.608 94.84 405.848 97.016C408.088 99.192 411.096 100.28 414.872 100.28C418.456 100.28 421.272 99.352 423.32 97.496C425.432 95.64 426.584 93.048 426.776 89.72H435.416C435.224 95.352 433.272 99.8 429.56 103.064C425.848 106.328 420.952 107.96 414.872 107.96ZM452.37 107V36.92H461.01V75.992H471.186L486.546 54.2H496.434L478.674 79.352L496.722 107H486.642L471.282 83.48H461.01V107H452.37ZM509.645 124.28V54.2H518.285V64.28H520.013L518.285 66.296C518.285 62.264 519.597 59.096 522.221 56.792C524.909 54.424 528.429 53.24 532.781 53.24C538.093 53.24 542.317 55 545.453 58.52C548.653 61.976 550.253 66.744 550.253 72.824V88.28C550.253 92.312 549.517 95.8 548.045 98.744C546.637 101.688 544.621 103.96 541.997 105.56C539.437 107.16 536.365 107.96 532.781 107.96C528.493 107.96 525.005 106.776 522.317 104.408C519.629 102.04 518.285 98.872 518.285 94.904L520.013 96.92H518.093L518.285 108.92V124.28H509.645ZM529.901 100.472C533.549 100.472 536.397 99.384 538.445 97.208C540.557 95.032 541.613 91.896 541.613 87.8V73.4C541.613 69.304 540.557 66.168 538.445 63.992C536.397 61.816 533.549 60.728 529.901 60.728C526.381 60.728 523.565 61.848 521.453 64.088C519.341 66.328 518.285 69.432 518.285 73.4V87.8C518.285 91.768 519.341 94.872 521.453 97.112C523.565 99.352 526.381 100.472 529.901 100.472ZM587.175 107.768C582.951 107.768 579.303 106.968 576.231 105.368C573.159 103.768 570.759 101.464 569.031 98.456C567.367 95.384 566.535 91.768 566.535 87.608V73.592C566.535 69.368 567.367 65.752 569.031 62.744C570.759 59.736 573.159 57.432 576.231 55.832C579.303 54.232 582.951 53.432 587.175 53.432C591.399 53.432 595.047 54.232 598.119 55.832C601.191 57.432 603.559 59.736 605.223 62.744C606.951 65.752 607.815 69.336 607.815 73.496V87.608C607.815 91.768 606.951 95.384 605.223 98.456C603.559 101.464 601.191 103.768 598.119 105.368C595.047 106.968 591.399 107.768 587.175 107.768ZM587.175 100.088C590.951 100.088 593.895 99.032 596.007 96.92C598.119 94.808 599.175 91.704 599.175 87.608V73.592C599.175 69.496 598.119 66.392 596.007 64.28C593.895 62.168 590.951 61.112 587.175 61.112C583.463 61.112 580.519 62.168 578.343 64.28C576.231 66.392 575.175 69.496 575.175 73.592V87.608C575.175 91.704 576.231 94.808 578.343 96.92C580.519 99.032 583.463 100.088 587.175 100.088ZM624.098 107V99.128H642.818V62.072H626.498V54.2H651.458V99.128H669.218V107H624.098ZM646.178 44.696C644.066 44.696 642.402 44.152 641.186 43.064C639.97 41.976 639.362 40.504 639.362 38.648C639.362 36.728 639.97 35.224 641.186 34.136C642.402 32.984 644.066 32.408 646.178 32.408C648.29 32.408 649.954 32.984 651.17 34.136C652.386 35.224 652.994 36.728 652.994 38.648C652.994 40.504 652.386 41.976 651.17 43.064C649.954 44.152 648.29 44.696 646.178 44.696ZM682.332 107V54.2H690.972V64.28H692.796L690.972 66.296C690.972 62.136 692.22 58.936 694.716 56.696C697.212 54.392 700.668 53.24 705.084 53.24C710.396 53.24 714.62 54.872 717.756 58.136C720.892 61.4 722.46 65.848 722.46 71.48V107H713.82V72.44C713.82 68.664 712.796 65.784 710.748 63.8C708.764 61.752 706.044 60.728 702.588 60.728C699.004 60.728 696.156 61.816 694.044 63.992C691.996 66.168 690.972 69.304 690.972 73.4V107H682.332ZM765.623 107C761.079 107 757.527 105.784 754.967 103.352C752.471 100.92 751.223 97.496 751.223 93.08V62.072H736.343V54.2H751.223V39.32H759.863V54.2H780.983V62.072H759.863V93.08C759.863 97.112 761.783 99.128 765.623 99.128H780.023V107H765.623Z" fill="black"/>
</svg>
